<svg width="142" height="105" viewBox="0 0 142 105" fill="none" xmlns="http://www.w3.org/2000/svg">
<path d="M51.7952 0V8.33333C49.6901 8.37302 47.5849 8.53174 45.5194 8.84921L45.0031 8.92857L43.2951 16.8254C39.9983 17.6984 36.8207 19.0079 33.8814 20.7143L27.0495 16.3889L26.6523 16.6667C22.8392 19.4444 19.4629 22.7778 16.7222 26.5873L16.4442 26.9841L20.7737 33.7698C19.026 36.7063 17.7152 39.881 16.8811 43.1746L9.0165 44.9206L8.93706 45.4365C8.6193 47.5397 8.4207 49.6429 8.4207 51.7063H0V53.2143H8.34126C8.38098 55.3175 8.53986 57.4206 8.85762 59.4841L8.93706 60L16.8017 61.746C17.6755 65.0397 18.9863 68.2143 20.6943 71.1508L16.3648 77.9365L16.6428 78.3333C19.4232 82.1429 22.7597 85.5159 26.5729 88.254L26.9701 88.5317L33.7622 84.2063C36.7015 85.9524 39.8792 87.2619 43.1759 88.0952L44.9236 95.9524L45.44 96.0317C47.5055 96.3492 49.6503 96.5476 51.7158 96.5476V104.881H53.2252V96.5873V78.2143V77.4603H52.4705C38.6478 77.4603 27.3673 66.1905 27.3673 52.381C27.3673 38.5714 38.6081 27.3016 52.4705 27.3016H53.2252V26.5476V8.33333V0H51.7952ZM51.7952 79.0476V95.1984C49.9681 95.1587 48.1013 95 46.2344 94.7222L44.5264 86.9444L44.0895 86.8254C40.6338 85.9921 37.2973 84.6032 34.2389 82.7381L33.8417 82.5L27.129 86.7857C23.7527 84.2857 20.734 81.2698 18.2316 77.8968L22.5214 71.1905L22.2831 70.7936C20.4162 67.7381 19.0657 64.4048 18.1919 60.9524L18.0727 60.5159L10.2876 58.8095C10.0095 56.9841 9.89035 55.119 9.85063 53.254H26.0168C26.414 67.3016 37.7343 78.6508 51.7952 79.0476ZM26.0168 51.746H9.85063C9.89035 49.9206 10.0095 48.0556 10.2876 46.1905L18.0727 44.4841L18.1919 44.0476C19.0657 40.5556 20.4162 37.2619 22.2831 34.2063L22.5214 33.8095L18.2316 27.1032C20.734 23.7302 23.7527 20.7143 27.129 18.2143L33.8417 22.5L34.2389 22.2619C37.2973 20.3968 40.5941 19.0476 44.0895 18.1746L44.5264 18.0556L46.2344 10.2778C48.0615 10 49.9284 9.84127 51.7952 9.80159V25.9524C37.7343 26.3492 26.414 37.6984 26.0168 51.746Z" fill="#222222"/>
<path d="M141.444 45.4759L141.364 44.96L133.5 43.214C132.626 39.9203 131.315 36.7457 129.607 33.8092L133.937 27.0235L133.659 26.6267C130.878 22.8171 127.542 19.4441 123.728 16.6663L123.331 16.3886L116.539 20.714C113.6 18.9679 110.422 17.6584 107.125 16.8251L105.378 8.96793L104.861 8.88856C102.518 8.53142 100.174 8.33301 97.8309 8.33301H97.0762V27.46H97.8309C111.654 27.46 122.894 38.6901 122.894 52.5394C122.894 66.3886 111.654 77.6187 97.8309 77.6187H97.0762V96.7457H97.8309C100.174 96.7457 102.518 96.5473 104.861 96.1901L105.378 96.1108L107.125 88.2536C110.422 87.3806 113.6 86.0711 116.539 84.3648L123.331 88.6901L123.728 88.4124C127.542 85.6346 130.918 82.3013 133.659 78.4917L133.937 78.0949L129.607 71.3092C131.355 68.3727 132.666 65.1981 133.5 61.9044L141.364 60.1584L141.444 59.6425C141.801 57.3013 142 54.96 142 52.6187C142 50.1584 141.841 47.8171 141.444 45.4759Z" fill="#0082C8"/>
<path d="M57.793 86.23H59.1435C59.1435 86.9046 59.5009 87.2221 60.0967 87.2221C60.6926 87.2221 61.0103 86.8649 61.0103 86.3887C61.0103 84.9999 57.9518 84.9205 57.9518 82.6189C57.9518 81.5078 58.7463 80.6348 60.0967 80.6348C61.4472 80.6348 62.2814 81.4681 62.2814 82.8173H60.9309C60.9309 82.2221 60.6131 81.9046 60.0967 81.9046C59.5804 81.9046 59.3023 82.1824 59.3023 82.6189C59.3023 83.9284 62.4005 83.9681 62.4005 86.3491C62.4005 87.5395 61.5664 88.4919 60.0967 88.4919C58.7065 88.5316 57.793 87.6983 57.793 86.23Z" fill="#222222"/>
<path d="M64.9424 86.0314L63.1152 80.833H64.5054L65.2204 83.1346C65.2999 83.4124 65.4985 83.9679 65.5779 84.3251H65.6176C65.6971 83.9679 65.8957 83.4124 65.9751 83.0949L66.6901 80.833H68.0803L66.2531 86.0314V88.3727H64.9026V86.0314H64.9424Z" fill="#222222"/>
<path d="M68.835 86.23H70.1855C70.1855 86.9046 70.5429 87.2221 71.1388 87.2221C71.7346 87.2221 72.0523 86.8649 72.0523 86.3887C72.0523 84.9999 68.9938 84.9205 68.9938 82.6189C68.9938 81.5078 69.7883 80.6348 71.1388 80.6348C72.4892 80.6348 73.3234 81.4681 73.3234 82.8173H71.9729C71.9729 82.2221 71.6551 81.9046 71.1388 81.9046C70.6224 81.9046 70.3443 82.1824 70.3443 82.6189C70.3443 83.9284 73.4425 83.9681 73.4425 86.3491C73.4425 87.5395 72.6084 88.4919 71.1388 88.4919C69.7485 88.5316 68.835 87.6983 68.835 86.23Z" fill="#222222"/>
<path d="M78.8448 82.0638H77.3355V88.3733H75.985V82.0638H74.4756V80.7939H78.8846V82.0638H78.8448Z" fill="#222222"/>
<path d="M84.0876 87.1035V88.3733H80.1553V80.7939H83.9684V82.0638H81.5058V83.9289H83.7698V85.159H81.5058V87.1431H84.0876V87.1035Z" fill="#222222"/>
<path d="M91.9919 80.7939V88.3733H90.6812V85.9923C90.7209 85.1193 90.7606 84.2463 90.8003 83.3733L90.7606 83.3336C90.562 83.9685 90.284 84.6431 90.0456 85.3177L89.5293 86.667H88.2185L87.7022 85.3177C87.4638 84.6431 87.2255 83.9685 86.9872 83.3336L86.9475 83.3733C86.9872 84.2463 87.0269 85.0797 87.0666 85.9923V88.3733H85.7559V80.7939H87.1064L88.3377 83.7701C88.4966 84.167 88.7746 84.8812 88.854 85.159H88.8938C88.9732 84.8416 89.2512 84.167 89.4101 83.7701L90.6415 80.7939H91.9919Z" fill="#222222"/>
<path d="M120.63 36.9844H105.814L97.6319 48.0161H88.536V36.9844H81.7438H75.7063H67.6034L54.9723 56.5479L42.3413 36.9844H28.1611L49.6498 68.4923H60.2551L75.7063 45.8733V68.4923H88.536V57.5002H97.6319L105.814 68.4923H120.63L108.317 52.7383L120.63 36.9844Z" fill="#0082C8"/>
</svg>
