<svg width="100" height="73" viewBox="0 0 100 73" fill="none" xmlns="http://www.w3.org/2000/svg">
<g clip-path="url(#clip0)">
<path d="M37.8487 0V5.81784C36.4736 5.81784 34.9611 5.95636 33.5861 6.2334H33.1736L31.936 11.7742C29.5985 12.3283 27.536 13.2979 25.4734 14.5446L20.7983 11.4972L20.5233 11.6357C17.9107 13.575 15.5732 15.9298 13.6481 18.5617L13.5106 18.8387L16.5357 23.5484C15.2982 25.6262 14.4732 27.8425 13.7857 30.0588L8.28553 31.3055V31.7211C8.01053 33.1063 8.01053 34.63 7.87302 36.1537H0V37.2619H7.87302C7.87302 38.6471 8.01053 40.1708 8.28553 41.6945V42.1101L13.7857 43.3567C14.3357 45.7116 15.2982 47.7894 16.5357 49.8672L13.5106 54.5769L13.6481 54.8539C15.5732 57.4858 17.9107 59.8406 20.5233 61.7799L20.7983 61.9184L25.4734 58.871C27.536 60.1176 29.736 60.9488 31.936 61.6414L33.1736 67.1822H33.5861C34.9611 67.4592 36.4736 67.4592 37.8487 67.5977V73.4156H38.9487V67.5977V54.8539V54.2998H38.3987C28.911 54.2998 21.0733 46.5427 21.0733 36.8463C21.0733 27.1499 28.7735 19.3928 38.3987 19.3928H38.9487V18.8387V5.81784V0H37.8487ZM37.8487 54.9924V66.2125C36.6111 66.2125 35.2361 66.074 33.9986 65.9355L32.7611 60.5332L32.4861 60.3947C30.1485 59.8406 27.811 58.871 25.7484 57.6243L25.4734 57.3472L20.7983 60.3947C18.4608 58.5939 16.3982 56.5161 14.6107 54.1613L17.6357 49.4516L17.4982 49.1746C16.2607 47.0968 15.2982 44.7419 14.7482 42.3871L14.6107 42.1101L9.24805 40.8634C8.97305 39.6167 8.97305 38.37 8.83554 36.9848H19.9733C20.2483 46.8197 28.086 54.7154 37.8487 54.9924ZM37.8487 18.0076C28.086 18.2846 20.3858 26.1803 20.1108 36.0152H8.83554C8.83554 34.7685 8.97305 33.3833 9.11055 32.1366L14.4732 30.8899L14.6107 30.6129C15.1607 28.2581 16.1232 25.9032 17.3607 23.8254L17.4982 23.5484L14.4732 18.8387C16.2607 16.4839 18.3232 14.4061 20.6608 12.6053L25.3359 15.6528L25.6109 15.5142C27.6735 14.2676 30.011 13.2979 32.3485 12.7438L32.6236 12.6053L33.8611 7.20303C35.2361 6.926 36.6111 6.78748 37.8487 6.78748V18.0076Z" fill="white"/>
<path d="M87.3497 36.5692C87.3497 26.5958 79.3746 18.5617 69.4744 18.5617V6.23339C71.1244 6.23339 72.6369 6.37191 74.287 6.64895L75.5245 12.0512C77.9995 12.6053 80.3371 13.7135 82.3996 14.9601L87.0747 11.9127C89.6873 13.852 91.8873 16.0683 93.8124 18.7002L90.9248 23.5484C92.1623 25.6262 93.1249 27.981 93.8124 30.4744L99.175 31.7211C99.45 33.2448 99.5875 34.907 99.5875 36.5692C99.5875 38.2315 99.45 39.7552 99.175 41.4174L93.8124 42.6641C93.2624 45.1575 92.1623 47.5123 90.9248 49.5901L93.9499 54.2998C92.0249 56.9317 89.8248 59.148 87.2122 61.0873L82.5371 58.0398C80.4746 59.2865 78.137 60.2561 75.662 60.9487L74.4245 66.351C72.9119 66.6281 71.2619 66.7666 69.6119 66.7666V54.5768C79.3746 54.4383 87.3497 46.4042 87.3497 36.5692Z" fill="white"/>
<path d="M41.9738 59.9791H42.9363C42.9363 60.3947 43.2113 60.6717 43.6238 60.6717C44.0363 60.6717 44.3113 60.3947 44.3113 60.1177C44.3113 59.148 42.2488 59.148 42.2488 57.4858C42.2488 56.6547 42.7988 56.1006 43.7613 56.1006C44.7238 56.1006 45.2738 56.6547 45.2738 57.6243H44.3113C44.3113 57.2087 44.0363 56.9317 43.7613 56.9317C43.3488 56.9317 43.2113 57.0702 43.2113 57.4858C43.2113 58.4554 45.2738 58.4554 45.2738 60.1177C45.2738 60.9488 44.7238 61.6414 43.6238 61.6414C42.5238 61.5029 41.9738 60.9488 41.9738 59.9791Z" fill="white"/>
<path d="M46.9239 59.8406L45.6863 56.2391H46.6488L47.1989 57.9013C47.1989 58.0399 47.3364 58.4554 47.4739 58.7325C47.4739 58.4554 47.6114 58.0399 47.7489 57.9013L48.2989 56.3776H49.2614L48.0239 59.9791V61.6414H47.0614V59.8406H46.9239Z" fill="white"/>
<path d="M49.5364 59.9791H50.4989C50.4989 60.3947 50.7739 60.6717 51.1864 60.6717C51.599 60.6717 51.874 60.3947 51.874 60.1177C51.874 59.148 49.8114 59.148 49.8114 57.4858C49.8114 56.6547 50.3614 56.1006 51.3239 56.1006C52.2865 56.1006 52.8365 56.6547 52.8365 57.6243H51.874C51.874 57.2087 51.599 56.9317 51.3239 56.9317C50.9114 56.9317 50.7739 57.0702 50.7739 57.4858C50.7739 58.4554 52.8365 58.4554 52.8365 60.1177C52.8365 60.9488 52.2865 61.6414 51.1864 61.6414C50.2239 61.5029 49.5364 60.9488 49.5364 59.9791Z" fill="white"/>
<path d="M56.4116 57.0702H55.3115V61.5029H54.349V57.0702H53.249V56.2391H56.2741V57.0702H56.4116Z" fill="white"/>
<path d="M60.1241 61.3643H57.3741V56.1006H59.9866V56.9317H58.3366V58.1784H59.8491V59.0095H58.3366V60.3947H60.1241V61.3643Z" fill="white"/>
<path d="M65.4867 56.2391V61.5029H64.5242V59.8406C64.5242 59.2865 64.5242 58.5939 64.6617 58.0399C64.5242 58.4554 64.3867 59.0095 64.1117 59.4251L63.6992 60.3947H62.7367L62.5992 59.4251C62.4617 59.0095 62.3242 58.4554 62.0492 58.0399C62.0492 58.5939 62.0492 59.2865 62.1867 59.8406V61.5029H61.2242V56.2391H62.1867L63.0117 58.3169C63.1492 58.5939 63.2867 59.0095 63.4242 59.2865C63.4242 59.0095 63.6992 58.5939 63.8367 58.3169L64.6617 56.2391H65.4867Z" fill="white"/>
<path d="M85.2872 25.7647H75.112L69.4744 33.3833H63.1492V25.7647H58.4741H54.349H48.7114L40.0487 39.3397L31.2485 25.7647H21.4858L36.3362 47.6509H43.6238L54.349 31.8596V47.6509H63.1492V40.0323H69.4744L75.112 47.6509H85.2872L76.762 36.7078L85.2872 25.7647Z" fill="white"/>
</g>
<defs>
<clipPath id="clip0">
<rect width="100" height="73" fill="white"/>
</clipPath>
</defs>
</svg>
